<svg width="223" height="63" viewBox="0 0 223 63" fill="none" xmlns="http://www.w3.org/2000/svg">
<rect width="223" height="63" fill="#F5F5F5"/>
<rect width="121" height="63" fill="#363535"/>
<path d="M7.47656 16.0703C7.47656 15.8203 7.59375 15.6562 7.82812 15.5781C8.07812 15.4844 8.33594 15.4375 8.60156 15.4375H10.4297C10.5859 15.4219 10.8828 15.4063 11.3203 15.3906C11.7734 15.375 12.2422 15.3594 12.7266 15.3438C13.2266 15.3125 13.6953 15.2891 14.1328 15.2734C14.5859 15.2578 14.9062 15.2422 15.0938 15.2266C15.125 15.2578 15.2344 15.2969 15.4219 15.3438C15.6094 15.375 15.7422 15.4063 15.8203 15.4375H15.9375C16.1406 15.4375 16.3203 15.3828 16.4766 15.2734C16.6484 15.1641 16.8203 15.1094 16.9922 15.1094C17.0234 15.0781 17.1172 15.0625 17.2734 15.0625C17.3984 15.0625 17.5312 15.0703 17.6719 15.0859C17.8125 15.1016 17.8984 15.1094 17.9297 15.1094C18.0547 15.0781 18.25 15.0469 18.5156 15.0156C18.7969 14.9688 19.0781 14.9219 19.3594 14.875C19.6562 14.8281 19.9219 14.7891 20.1562 14.7578C20.4062 14.7266 20.5703 14.7031 20.6484 14.6875C20.6641 14.6875 20.7109 14.6719 20.7891 14.6406C20.8828 14.6094 20.9766 14.5781 21.0703 14.5469C21.1797 14.5 21.2734 14.4609 21.3516 14.4297C21.4453 14.3828 21.5078 14.3516 21.5391 14.3359C21.6016 14.3047 21.7266 14.2656 21.9141 14.2188C22.1016 14.1562 22.2031 14.125 22.2188 14.125H23.4141H24.5859C24.7891 14.2031 24.9062 14.3281 24.9375 14.5C24.9688 14.6719 24.9844 14.8359 24.9844 14.9922C24.9844 15.0547 24.9766 15.1406 24.9609 15.25C24.9453 15.3438 24.9375 15.4063 24.9375 15.4375C24.9375 15.4687 24.9062 15.5234 24.8438 15.6016C24.7812 15.6641 24.7109 15.7344 24.6328 15.8125C24.5547 15.875 24.4766 15.9375 24.3984 16C24.3359 16.0469 24.2891 16.0703 24.2578 16.0703C24.1328 16.1172 23.9297 16.1641 23.6484 16.2109C23.3672 16.2578 23.0703 16.3047 22.7578 16.3516C22.4609 16.3828 22.1719 16.4141 21.8906 16.4453C21.625 16.4766 21.4375 16.4922 21.3281 16.4922C21.3125 16.4922 21.2734 16.5 21.2109 16.5156C21.1484 16.5156 21.0703 16.5156 20.9766 16.5156C20.7891 16.5156 20.5781 16.5156 20.3438 16.5156C20.125 16.5 19.9844 16.4922 19.9219 16.4922C19.7031 16.5078 19.4609 16.5469 19.1953 16.6094C18.9453 16.6562 18.75 16.7891 18.6094 17.0078C18.6094 17.0859 18.5938 17.2188 18.5625 17.4062C18.5312 17.5938 18.5 17.7969 18.4688 18.0156C18.4375 18.2188 18.3984 18.4219 18.3516 18.625C18.3203 18.8125 18.3047 18.9375 18.3047 19C18.3047 19.0312 18.2812 19.125 18.2344 19.2812C18.1875 19.4219 18.1641 19.5 18.1641 19.5156C18.1484 19.5625 18.1328 19.6172 18.1172 19.6797C18.1016 19.7422 18.0938 19.8281 18.0938 19.9375C18.0938 20.2969 18.125 20.6406 18.1875 20.9688C18.2656 21.2969 18.3047 21.6641 18.3047 22.0703C18.3047 22.6484 18.2812 23.2109 18.2344 23.7578C18.1875 24.2891 18.1641 24.8359 18.1641 25.3984C18.1641 25.4297 18.1719 25.4844 18.1875 25.5625C18.2031 25.625 18.2188 25.7031 18.2344 25.7969C18.25 25.8906 18.2656 25.9766 18.2812 26.0547C18.2969 26.1328 18.3047 26.1875 18.3047 26.2188C18.3047 26.25 18.3047 26.3438 18.3047 26.5C18.3203 26.6406 18.3281 26.8047 18.3281 26.9922C18.3281 27.1797 18.3281 27.3828 18.3281 27.6016C18.3281 27.8203 18.3203 28.0312 18.3047 28.2344C18.3047 28.4375 18.3047 28.6172 18.3047 28.7734C18.3047 28.9297 18.3047 29.0391 18.3047 29.1016C18.3047 29.1016 18.3125 29.1406 18.3281 29.2188C18.3438 29.2812 18.3594 29.3516 18.375 29.4297C18.3906 29.4922 18.4062 29.5625 18.4219 29.6406C18.4375 29.7031 18.4453 29.7344 18.4453 29.7344C18.4453 29.7969 18.4531 29.9141 18.4688 30.0859C18.4844 30.2578 18.5 30.4453 18.5156 30.6484C18.5469 30.8359 18.5703 31.0234 18.5859 31.2109C18.6016 31.3828 18.6094 31.5156 18.6094 31.6094L18.6562 31.7031C18.6875 31.7656 18.7031 31.8125 18.7031 31.8438C18.7031 32.8125 18.6562 33.7812 18.5625 34.75C18.4688 35.7188 18.3828 36.6953 18.3047 37.6797C18.3047 37.7266 18.3125 37.8125 18.3281 37.9375C18.3438 38.0469 18.3594 38.1719 18.375 38.3125C18.3906 38.4375 18.4062 38.5625 18.4219 38.6875C18.4375 38.8125 18.4453 38.8984 18.4453 38.9453C18.4609 39.0703 18.4766 39.2812 18.4922 39.5781C18.5234 39.8594 18.5469 40.1641 18.5625 40.4922C18.5781 40.8203 18.5859 41.1328 18.5859 41.4297C18.6016 41.7109 18.6094 41.9062 18.6094 42.0156C18.6406 42.0625 18.6562 42.1875 18.6562 42.3906C18.6562 42.5781 18.6562 42.7969 18.6562 43.0469C18.6562 43.2812 18.6484 43.5234 18.6328 43.7734C18.6328 44.0234 18.6328 44.2656 18.6328 44.5C18.6328 44.7188 18.625 44.9141 18.6094 45.0859C18.6094 45.2422 18.6094 45.3438 18.6094 45.3906C18.625 45.4688 18.6406 45.5781 18.6562 45.7188C18.6875 45.8594 18.7188 46 18.75 46.1406C18.7812 46.2812 18.8281 46.4141 18.8906 46.5391C18.9688 46.6484 19.0703 46.7266 19.1953 46.7734C19.2578 46.7734 19.3828 46.7812 19.5703 46.7969C19.7578 46.8125 19.9531 46.8281 20.1562 46.8438C20.375 46.8438 20.5781 46.8516 20.7656 46.8672C20.9531 46.8828 21.0781 46.8906 21.1406 46.8906C21.2031 46.8906 21.3047 46.9062 21.4453 46.9375C21.5859 46.9688 21.6719 46.9922 21.7031 47.0078C21.875 47.0078 22.1719 47.0078 22.5938 47.0078C23.0312 46.9922 23.5156 46.9844 24.0469 46.9844C24.5469 46.9844 25.0156 46.9922 25.4531 47.0078C25.8906 47.0078 26.1953 47.0078 26.3672 47.0078C26.3828 47.0078 26.4375 47.0156 26.5312 47.0312C26.6406 47.0469 26.7578 47.0703 26.8828 47.1016C27.0078 47.1172 27.125 47.1406 27.2344 47.1719C27.3594 47.1875 27.4375 47.2031 27.4688 47.2188C28.1406 47.25 28.8359 47.3125 29.5547 47.4062C30.2891 47.5 31.0078 47.5469 31.7109 47.5469C31.9141 47.5469 32.0703 47.5391 32.1797 47.5234C32.3047 47.4922 32.4766 47.4453 32.6953 47.3828C33.0547 47.1953 33.4062 47.0078 33.75 46.8203C34.0938 46.6172 34.4453 46.4219 34.8047 46.2344C34.8984 46.125 34.9844 46.0391 35.0625 45.9766C35.1406 45.9141 35.2188 45.8594 35.2969 45.8125C35.375 45.7656 35.4531 45.7109 35.5312 45.6484C35.625 45.5859 35.7344 45.5 35.8594 45.3906C36.3125 45 36.7109 44.5625 37.0547 44.0781C37.4141 43.5938 37.7578 43.1016 38.0859 42.6016C38.4141 42.0859 38.7422 41.5781 39.0703 41.0781C39.3984 40.5625 39.7734 40.0938 40.1953 39.6719C40.1953 39.6406 40.2344 39.625 40.3125 39.625H40.3359C40.3359 39.625 40.3672 39.6406 40.4297 39.6719L40.4766 39.8125C40.4922 39.8438 40.5078 39.875 40.5234 39.9062C40.5391 39.9375 40.5469 39.9688 40.5469 40C40.5625 40.0469 40.5859 40.1641 40.6172 40.3516C40.6484 40.5234 40.6797 40.7188 40.7109 40.9375C40.7422 41.1562 40.7734 41.3672 40.8047 41.5703C40.8359 41.7734 40.8594 41.9219 40.875 42.0156V42.1562V42.3438C40.875 42.4219 40.8594 42.6016 40.8281 42.8828C40.7969 43.1484 40.7578 43.4453 40.7109 43.7734C40.6797 44.1016 40.6484 44.4141 40.6172 44.7109C40.5859 44.9922 40.5625 45.1797 40.5469 45.2734C40.5469 45.3203 40.5391 45.4453 40.5234 45.6484C40.5078 45.8516 40.4922 46.0781 40.4766 46.3281C40.4766 46.5625 40.4688 46.7891 40.4531 47.0078C40.4375 47.2109 40.4297 47.3359 40.4297 47.3828C40.3516 47.8828 40.2031 48.2812 39.9844 48.5781C39.7656 48.8594 39.4297 49 38.9766 49C38.8359 48.9688 38.5859 48.9531 38.2266 48.9531C37.8672 48.9531 37.4844 48.9531 37.0781 48.9531C36.6719 48.9531 36.2891 48.9531 35.9297 48.9531C35.5703 48.9531 35.3281 48.9688 35.2031 49C35.1719 49 35.1094 49 35.0156 49C34.9375 49.0156 34.8438 49.0312 34.7344 49.0469C34.625 49.0625 34.5234 49.0703 34.4297 49.0703C34.3516 49.0859 34.2969 49.1016 34.2656 49.1172H29.4375C29.3281 49.1328 29.0469 49.1484 28.5938 49.1641C28.1562 49.1953 27.6875 49.2188 27.1875 49.2344C26.6875 49.2656 26.2109 49.2891 25.7578 49.3047C25.3203 49.3203 25.0469 49.3281 24.9375 49.3281H24.8672H24.75C24.6562 49.3125 24.4141 49.2891 24.0234 49.2578C23.6484 49.2266 23.2344 49.1875 22.7812 49.1406C22.3438 49.1094 21.9375 49.0781 21.5625 49.0469C21.1875 49.0156 20.9531 49 20.8594 49H19.1953C19.1641 49 19.0703 48.9844 18.9141 48.9531C18.7578 48.9062 18.6562 48.8828 18.6094 48.8828C18.6094 48.8828 18.5703 48.8906 18.4922 48.9062C18.4297 48.9219 18.3594 48.9375 18.2812 48.9531C18.2031 48.9531 18.125 48.9609 18.0469 48.9766C17.9844 48.9922 17.9453 49 17.9297 49H16.8281C15.6094 49.0312 14.3828 49.0938 13.1484 49.1875C11.9297 49.2812 10.6953 49.3281 9.44531 49.3281H8.32031C8.28906 49.3281 8.25 49.3203 8.20312 49.3047C8.17188 49.2891 8.08594 49.2266 7.94531 49.1172C7.91406 49.0859 7.88281 49.0156 7.85156 48.9062C7.83594 48.7969 7.82812 48.6953 7.82812 48.6016C7.82812 48.4297 7.85938 48.2812 7.92188 48.1562C8 48.0156 8.10156 47.9297 8.22656 47.8984C8.25781 47.8828 8.32031 47.8516 8.41406 47.8047C8.50781 47.7422 8.57031 47.6953 8.60156 47.6641C8.91406 47.5234 9.28125 47.4531 9.70312 47.4531C10.1406 47.4531 10.5781 47.4453 11.0156 47.4297C11.4531 47.3984 11.8594 47.3281 12.2344 47.2188C12.6094 47.0938 12.8984 46.8516 13.1016 46.4922C13.1172 46.4297 13.1328 46.3125 13.1484 46.1406C13.1641 45.9531 13.1797 45.7656 13.1953 45.5781C13.2109 45.375 13.2266 45.1953 13.2422 45.0391C13.2578 44.8672 13.2656 44.7578 13.2656 44.7109C13.2656 44.6641 13.2344 44.5625 13.1719 44.4062C13.125 44.2344 13.1016 44.1328 13.1016 44.1016V42.8828L13.0312 42.3438C13.0156 42.3125 13.0078 42.2812 13.0078 42.25C12.9922 42.2188 12.9844 42.1875 12.9844 42.1562C12.9844 41.9062 13 41.6953 13.0312 41.5234C13.0781 41.3516 13.1016 41.1562 13.1016 40.9375V40.5625C13.1016 40.5 13.0859 40.3984 13.0547 40.2578C13.0391 40.1172 13.0312 40.0312 13.0312 40C13.0312 39.9531 13.0391 39.8359 13.0547 39.6484C13.0859 39.4609 13.1016 39.3359 13.1016 39.2734V37.6797C13.1016 37.6016 13.1328 37.4609 13.1953 37.2578C13.2578 37.0547 13.2812 36.9141 13.2656 36.8359C13.2344 36.7578 13.2031 36.5391 13.1719 36.1797C13.1562 35.8203 13.1328 35.2422 13.1016 34.4453V32.8281C13.1328 32.0312 13.1562 31.4609 13.1719 31.1172C13.2031 30.7734 13.2344 30.5703 13.2656 30.5078V30.3906C13.2656 29.7969 13.2344 29.2031 13.1719 28.6094C13.125 28.0156 13.1016 27.4219 13.1016 26.8281C13.1016 26.7188 13.0938 26.6094 13.0781 26.5C13.0625 26.3906 13.0547 26.2812 13.0547 26.1719C13.0547 26.0312 13.0859 25.8359 13.1484 25.5859C13.2266 25.3203 13.2656 25.0156 13.2656 24.6719C13.2656 24.2812 13.2578 23.8828 13.2422 23.4766C13.2266 23.0547 13.2188 22.6406 13.2188 22.2344C13.2188 21.875 13.2266 21.5234 13.2422 21.1797C13.2578 20.8203 13.2656 20.4609 13.2656 20.1016C13.1875 19.9297 13.1328 19.7266 13.1016 19.4922C13.0859 19.2578 13.0625 19.0312 13.0312 18.8125C13.0156 18.5781 12.9844 18.3672 12.9375 18.1797C12.9062 17.9766 12.8281 17.8281 12.7031 17.7344C12.4844 17.5625 12.1641 17.4531 11.7422 17.4062C11.3359 17.3438 10.8828 17.2891 10.3828 17.2422C9.96094 17.2109 9.53125 17.1875 9.09375 17.1719C8.67188 17.1406 8.32031 17.0625 8.03906 16.9375C7.66406 16.7969 7.47656 16.5078 7.47656 16.0703ZM49.7344 39.7188C49.7344 39.9375 49.8359 40.0938 50.0391 40.1875C50.2422 40.2812 50.4297 40.3281 50.6016 40.3281H51.8438C52.0156 40.3281 52.1875 40.3359 52.3594 40.3516C52.5312 40.3672 52.7031 40.375 52.875 40.375C53.2812 40.375 53.6328 40.3125 53.9297 40.1875C54.2266 40.0469 54.375 39.7422 54.375 39.2734V38.875C54.2344 38.1562 54.0234 37.4453 53.7422 36.7422C53.4609 36.0234 53.1953 35.3281 52.9453 34.6562C52.9141 34.5469 52.8672 34.4297 52.8047 34.3047C52.7578 34.1641 52.6953 34.0391 52.6172 33.9297C52.5391 33.8047 52.4531 33.7031 52.3594 33.625C52.2656 33.5469 52.1641 33.5078 52.0547 33.5078C51.8516 33.5078 51.6875 33.5938 51.5625 33.7656C51.4531 33.9375 51.3594 34.1406 51.2812 34.375C51.2188 34.6094 51.1641 34.8516 51.1172 35.1016C51.0703 35.3359 51.0156 35.5234 50.9531 35.6641C50.9062 35.8047 50.8203 36.0547 50.6953 36.4141C50.5859 36.7734 50.4688 37.1562 50.3438 37.5625C50.2188 37.9531 50.0938 38.3281 49.9688 38.6875C49.8594 39.0469 49.7812 39.2969 49.7344 39.4375V39.7188ZM44.2734 48.8828H44.1562C44.125 48.8828 44.0469 48.8984 43.9219 48.9297C43.7969 48.9453 43.6562 48.9688 43.5 49C43.3438 49.0156 43.1953 49.0312 43.0547 49.0469C42.9297 49.0625 42.8516 49.0703 42.8203 49.0703H42.6797C42.5859 49.0703 42.5078 49.0312 42.4453 48.9531C42.3828 48.875 42.3359 48.7891 42.3047 48.6953C42.2734 48.5859 42.2578 48.4844 42.2578 48.3906C42.2422 48.2812 42.2344 48.2109 42.2344 48.1797V48.1094C42.2344 47.8281 42.3281 47.6406 42.5156 47.5469C42.7188 47.4531 42.9141 47.3672 43.1016 47.2891C43.1328 47.2891 43.2109 47.2656 43.3359 47.2188C43.4609 47.1562 43.5938 47.0938 43.7344 47.0312C43.8906 46.9688 44.0312 46.9141 44.1562 46.8672C44.2812 46.8047 44.3594 46.7578 44.3906 46.7266C44.4062 46.7109 44.4531 46.6719 44.5312 46.6094C44.6094 46.5312 44.6953 46.4453 44.7891 46.3516C44.8828 46.2578 44.9688 46.1641 45.0469 46.0703C45.1406 45.9766 45.2188 45.8984 45.2812 45.8359C45.2969 45.8047 45.3203 45.7656 45.3516 45.7188C45.4141 45.625 45.4453 45.5547 45.4453 45.5078C45.4453 45.4766 45.4609 45.3828 45.4922 45.2266C45.5391 45.0703 45.5781 44.9766 45.6094 44.9453C46.0312 44.1016 46.4531 43.25 46.875 42.3906C47.2969 41.5156 47.6953 40.6406 48.0703 39.7656C48.1172 39.7188 48.1797 39.5859 48.2578 39.3672C48.3516 39.1328 48.4141 38.9688 48.4453 38.875C48.4609 38.8438 48.5 38.75 48.5625 38.5938C48.625 38.4219 48.6875 38.25 48.75 38.0781C48.8125 37.8906 48.8672 37.7188 48.9141 37.5625C48.9766 37.4062 49.0078 37.3125 49.0078 37.2812C49.0234 37.2344 49.0703 37.125 49.1484 36.9531C49.2422 36.7812 49.3359 36.5938 49.4297 36.3906C49.5391 36.1875 49.6328 35.9922 49.7109 35.8047C49.8047 35.6172 49.8672 35.5 49.8984 35.4531C50.0234 35.1719 50.1406 34.9219 50.25 34.7031C50.375 34.4688 50.4922 34.1953 50.6016 33.8828C50.6641 33.7578 50.7422 33.6172 50.8359 33.4609C50.9453 33.3047 51.0469 33.1406 51.1406 32.9688C51.2344 32.7812 51.3125 32.6016 51.375 32.4297C51.4531 32.2578 51.4922 32.0938 51.4922 31.9375V31.6094C51.4922 31.5469 51.4688 31.4453 51.4219 31.3047C51.3906 31.1484 51.375 31.0625 51.375 31.0469C51.375 30.9375 51.4375 30.7969 51.5625 30.625C51.6875 30.4531 51.7812 30.3438 51.8438 30.2969C51.875 30.2812 51.9453 30.25 52.0547 30.2031C52.1797 30.1562 52.3047 30.1016 52.4297 30.0391C52.5547 29.9766 52.6641 29.9219 52.7578 29.875C52.8672 29.8281 52.9297 29.7969 52.9453 29.7812C52.9766 29.75 53.0391 29.6875 53.1328 29.5938C53.2266 29.5 53.3281 29.3984 53.4375 29.2891C53.5625 29.1641 53.6719 29.0469 53.7656 28.9375C53.875 28.8125 53.9531 28.7266 54 28.6797C54.0156 28.6641 54.0469 28.6172 54.0938 28.5391C54.1406 28.4453 54.1953 28.3594 54.2578 28.2812C54.3203 28.1875 54.3906 28.1094 54.4688 28.0469C54.5469 27.9688 54.6328 27.9375 54.7266 27.9531C54.8828 28 55.0156 28.1406 55.125 28.375C55.25 28.6094 55.3516 28.8672 55.4297 29.1484C55.5234 29.4141 55.6016 29.6797 55.6641 29.9453C55.7266 30.1953 55.7812 30.3672 55.8281 30.4609C55.8438 30.5391 55.8672 30.6484 55.8984 30.7891C55.9453 30.9297 55.9844 31.0703 56.0156 31.2109C56.0625 31.3516 56.1016 31.4766 56.1328 31.5859C56.1641 31.6953 56.1797 31.7578 56.1797 31.7734C56.1953 31.8203 56.2188 31.9297 56.25 32.1016C56.2812 32.2734 56.3125 32.4609 56.3438 32.6641C56.3906 32.8672 56.4297 33.0547 56.4609 33.2266C56.4922 33.3828 56.5078 33.4766 56.5078 33.5078C56.5234 33.5547 56.5625 33.7031 56.625 33.9531C56.7031 34.2031 56.7891 34.4922 56.8828 34.8203C56.9766 35.1484 57.0703 35.4766 57.1641 35.8047C57.2578 36.1172 57.3359 36.3672 57.3984 36.5547C57.5234 36.9766 57.6797 37.3984 57.8672 37.8203C58.0547 38.2266 58.1953 38.6406 58.2891 39.0625C58.3672 39.4219 58.4141 39.7109 58.4297 39.9297C58.4609 40.1328 58.5391 40.3828 58.6641 40.6797C58.6797 40.7109 58.7109 40.7812 58.7578 40.8906C58.8203 40.9844 58.8828 41.0938 58.9453 41.2188C59.0078 41.3281 59.0625 41.4375 59.1094 41.5469C59.1562 41.6562 59.1875 41.7344 59.2031 41.7812C59.2031 41.8125 59.2109 41.8672 59.2266 41.9453C59.2422 42.0234 59.2578 42.1172 59.2734 42.2266C59.3047 42.3203 59.3281 42.4141 59.3438 42.5078C59.3594 42.5859 59.375 42.6406 59.3906 42.6719C59.3906 42.6875 59.4062 42.7422 59.4375 42.8359C59.4688 42.9141 59.5078 43.0078 59.5547 43.1172C59.6016 43.2109 59.6406 43.3047 59.6719 43.3984C59.7188 43.4766 59.75 43.5156 59.7656 43.5156C59.8438 43.9219 59.9453 44.3594 60.0703 44.8281C60.1953 45.2969 60.3906 45.7109 60.6562 46.0703C60.7812 46.2578 61.0078 46.4141 61.3359 46.5391C61.6797 46.6641 62.0234 46.7891 62.3672 46.9141C62.7266 47.0391 63.0391 47.1797 63.3047 47.3359C63.5703 47.4922 63.7031 47.6953 63.7031 47.9453C63.7031 48.2109 63.6328 48.4219 63.4922 48.5781C63.3672 48.7188 63.2031 48.8281 63 48.9062C62.7969 48.9844 62.5703 49.0312 62.3203 49.0469C62.0703 49.0625 61.8359 49.0703 61.6172 49.0703H61.1484H60.6562C60.4062 49.0703 59.9688 49.0625 59.3438 49.0469C58.7188 49.0312 58.0469 49.0156 57.3281 49C56.625 48.9688 55.9531 48.9453 55.3125 48.9297C54.6875 48.8984 54.25 48.8828 54 48.8828C53.8281 48.8203 53.7266 48.75 53.6953 48.6719C53.6641 48.5781 53.6484 48.4453 53.6484 48.2734V48.1094C53.6484 48.0781 53.6562 48.0469 53.6719 48.0156C53.8125 47.7188 54.0078 47.5234 54.2578 47.4297C54.5078 47.3203 54.7656 47.2344 55.0312 47.1719C55.3125 47.1094 55.5859 47.0391 55.8516 46.9609C56.1172 46.8672 56.3359 46.6797 56.5078 46.3984L56.5547 46.2344L56.5078 46.0703C56.4922 45.9297 56.4531 45.7344 56.3906 45.4844C56.3438 45.2344 56.2891 44.9844 56.2266 44.7344C56.1797 44.4844 56.1328 44.2656 56.0859 44.0781C56.0391 43.875 56.0078 43.7578 55.9922 43.7266C55.9609 43.6953 55.9141 43.6172 55.8516 43.4922C55.7891 43.3672 55.7188 43.2266 55.6406 43.0703C55.5781 42.9141 55.5078 42.7656 55.4297 42.625C55.3672 42.4688 55.3125 42.3516 55.2656 42.2734C55.0938 42.0078 54.8516 41.8516 54.5391 41.8047C54.2422 41.7422 53.9453 41.7109 53.6484 41.7109H53.1797C52.6172 41.7109 52.0859 41.75 51.5859 41.8281C51.1016 41.9062 50.5859 41.9453 50.0391 41.9453C49.9297 41.9453 49.8203 41.9375 49.7109 41.9219C49.6016 41.9062 49.4922 41.8984 49.3828 41.8984C49.2734 42.0078 49.2188 42.0938 49.2188 42.1562C49.1875 42.1719 49.1484 42.2344 49.1016 42.3438C49.0703 42.4375 49.0312 42.5469 48.9844 42.6719C48.9531 42.7812 48.9141 42.8906 48.8672 43C48.8359 43.0938 48.8203 43.1484 48.8203 43.1641C48.8203 43.1953 48.7656 43.2891 48.6562 43.4453C48.5625 43.6016 48.4922 43.6953 48.4453 43.7266C48.2578 44.1172 48.1484 44.5234 48.1172 44.9453C48.0859 45.3516 48.0703 45.7734 48.0703 46.2109C48.0703 46.4609 48.1484 46.6484 48.3047 46.7734C48.4609 46.8828 48.6562 46.9688 48.8906 47.0312C49.125 47.0938 49.375 47.1484 49.6406 47.1953C49.9062 47.2266 50.1562 47.2812 50.3906 47.3594C50.625 47.4219 50.8203 47.5234 50.9766 47.6641C51.1328 47.8047 51.2109 48.0078 51.2109 48.2734C51.2109 48.7891 50.9688 49.1094 50.4844 49.2344C50.4219 49.2344 50.3047 49.2266 50.1328 49.2109C49.9766 49.1953 49.8125 49.1797 49.6406 49.1641C49.4688 49.1484 49.3047 49.1328 49.1484 49.1172C48.9922 49.1016 48.8828 49.0859 48.8203 49.0703H47.1562H46.5C46.4531 49.0703 46.3281 49.0625 46.125 49.0469C45.9219 49.0312 45.6953 49.0156 45.4453 49C45.1953 48.9688 44.9688 48.9453 44.7656 48.9297C44.5625 48.8984 44.4375 48.8828 44.3906 48.8828H44.2734ZM82.5469 49.1172H82.4297C82.3828 49.1172 82.3047 49.125 82.1953 49.1406C82.1016 49.1562 81.9922 49.1641 81.8672 49.1641C81.7578 49.1797 81.6562 49.1953 81.5625 49.2109C81.4688 49.2266 81.4062 49.2344 81.375 49.2344C81.2031 49.2344 80.9062 49.2266 80.4844 49.2109C80.0781 49.1953 79.6328 49.1797 79.1484 49.1641C78.6797 49.1641 78.2344 49.1562 77.8125 49.1406C77.3906 49.125 77.0938 49.1172 76.9219 49.1172H74.2266C74.2109 49.1172 74.1641 49.1094 74.0859 49.0938C74.0078 49.0781 73.9297 49.0547 73.8516 49.0234C73.7734 49.0078 73.6953 48.9922 73.6172 48.9766C73.5547 48.9609 73.5156 48.9531 73.5 48.9531C73.3125 48.9531 73.1328 48.9688 72.9609 49C72.8047 49.0469 72.6484 49.0938 72.4922 49.1406C72.3516 49.1875 72.2031 49.2266 72.0469 49.2578C71.8906 49.3047 71.7266 49.3281 71.5547 49.3281C71.5234 49.3281 71.4844 49.3203 71.4375 49.3047C71.3906 49.3047 71.3672 49.2812 71.3672 49.2344C71.3203 49.2344 71.2266 49.2109 71.0859 49.1641C70.9453 49.1328 70.8594 49.1172 70.8281 49.1172C70.7812 49.1172 70.6641 49.125 70.4766 49.1406C70.3047 49.1562 70.1172 49.1641 69.9141 49.1641C69.7109 49.1797 69.5156 49.1953 69.3281 49.2109C69.1562 49.2266 69.0469 49.2344 69 49.2344L68.9531 49.2812C68.9219 49.3125 68.8984 49.3281 68.8828 49.3281C68.6641 49.3281 68.4375 49.3125 68.2031 49.2812C67.9688 49.2656 67.75 49.2188 67.5469 49.1406C67.3594 49.0625 67.2031 48.9531 67.0781 48.8125C66.9531 48.6562 66.8906 48.4453 66.8906 48.1797C66.8906 47.8828 66.9453 47.5938 67.0547 47.3125C67.1797 47.0312 67.3203 46.7578 67.4766 46.4922C67.6484 46.2266 67.8203 45.9766 67.9922 45.7422C68.1797 45.4922 68.3438 45.25 68.4844 45.0156C68.5156 44.9844 68.5625 44.9062 68.625 44.7812C68.7031 44.6562 68.7734 44.5234 68.8359 44.3828C68.9141 44.2266 68.9844 44.0859 69.0469 43.9609C69.125 43.8203 69.1797 43.7188 69.2109 43.6562C69.6641 42.6094 70.2031 41.625 70.8281 40.7031C71.4531 39.7656 72.0469 38.8281 72.6094 37.8906C72.75 37.6875 72.8672 37.4609 72.9609 37.2109C73.0547 36.9609 73.1406 36.7109 73.2188 36.4609C73.3125 36.1953 73.3906 35.9453 73.4531 35.7109C73.5156 35.4609 73.5859 35.2422 73.6641 35.0547C73.7891 34.7891 73.9375 34.5703 74.1094 34.3984C74.2812 34.2109 74.4297 34.0078 74.5547 33.7891C74.7109 33.5391 74.8906 33.2188 75.0938 32.8281C75.2969 32.4375 75.4922 32.0312 75.6797 31.6094C75.8672 31.1875 76.0234 30.7812 76.1484 30.3906C76.2734 29.9844 76.3359 29.6484 76.3359 29.3828C76.3359 29.3516 76.3438 29.3047 76.3594 29.2422C76.375 29.1797 76.3828 29.1328 76.3828 29.1016C76.3828 28.8984 76.3047 28.7734 76.1484 28.7266C75.5703 28.6953 75.0469 28.6406 74.5781 28.5625C74.125 28.4844 73.5938 28.4453 72.9844 28.4453H71.8125C71.5938 28.4453 71.3516 28.4531 71.0859 28.4688C70.8203 28.4688 70.5469 28.5 70.2656 28.5625C70.2031 28.625 70.0938 28.7344 69.9375 28.8906C69.7969 29.0469 69.6406 29.2188 69.4688 29.4062C69.2969 29.5781 69.1328 29.7422 68.9766 29.8984C68.8203 30.0391 68.7109 30.1328 68.6484 30.1797C68.4766 30.3984 68.3359 30.6172 68.2266 30.8359C68.1172 31.0391 68.0078 31.25 67.8984 31.4688C67.7891 31.6719 67.6562 31.875 67.5 32.0781C67.3594 32.2812 67.1562 32.4766 66.8906 32.6641C66.8906 32.7109 66.8594 32.7344 66.7969 32.7344H66.7266C66.5547 32.7344 66.4297 32.6719 66.3516 32.5469C66.2891 32.4062 66.2266 32.2656 66.1641 32.125V31.1172C66.1641 30.4141 66.2734 29.75 66.4922 29.125C66.7109 28.5 66.9141 27.8438 67.1016 27.1562C67.1328 26.9688 67.1641 26.7422 67.1953 26.4766C67.2422 26.2109 67.3125 25.9609 67.4062 25.7266C67.5 25.4766 67.6328 25.2656 67.8047 25.0938C67.9766 24.9219 68.2031 24.8359 68.4844 24.8359C68.6719 24.8359 68.8438 24.8906 69 25C69.1719 25.1094 69.3281 25.2422 69.4688 25.3984C69.625 25.5391 69.7812 25.6797 69.9375 25.8203C70.1094 25.9609 70.2969 26.0547 70.5 26.1016C70.5312 26.1016 70.6172 26.1094 70.7578 26.125C70.9141 26.1406 71.0781 26.1562 71.25 26.1719C71.4219 26.1875 71.5781 26.2109 71.7188 26.2422C71.875 26.2578 71.9688 26.2734 72 26.2891C72.0469 26.2891 72.1484 26.3203 72.3047 26.3828C72.4766 26.4297 72.5781 26.4531 72.6094 26.4531C72.8906 26.5 73.1328 26.5469 73.3359 26.5938C73.5391 26.6406 73.7344 26.6875 73.9219 26.7344C74.125 26.7656 74.3359 26.7891 74.5547 26.8047C74.7891 26.8203 75.0781 26.8281 75.4219 26.8281H82.1016C82.2891 26.9219 82.4844 26.9766 82.6875 26.9922C82.9062 26.9922 83.0938 27.0078 83.25 27.0391C83.4219 27.0703 83.5625 27.1562 83.6719 27.2969C83.7812 27.4219 83.8359 27.6719 83.8359 28.0469C83.8359 28.3906 83.7422 28.6562 83.5547 28.8438C83.3828 29.0312 83.1953 29.2344 82.9922 29.4531C82.9609 29.5 82.8984 29.5938 82.8047 29.7344C82.7109 29.875 82.6016 30.0391 82.4766 30.2266C82.3672 30.3984 82.2578 30.5703 82.1484 30.7422C82.0391 30.8984 81.9531 31.0234 81.8906 31.1172L81.7969 31.2578C81.75 31.3359 81.7266 31.3984 81.7266 31.4453C81.7266 31.4609 81.6953 31.4922 81.6328 31.5391C81.5859 31.5859 81.5234 31.6406 81.4453 31.7031C81.3828 31.75 81.3203 31.8047 81.2578 31.8672C81.2109 31.9141 81.1797 31.9453 81.1641 31.9609C80.8984 32.3516 80.6797 32.7734 80.5078 33.2266C80.3516 33.6641 80.1797 34.0938 79.9922 34.5156C79.5703 35.1875 79.1094 35.8359 78.6094 36.4609C78.1094 37.0703 77.6797 37.7188 77.3203 38.4062C77.2578 38.4375 77.1953 38.5312 77.1328 38.6875C77.0859 38.8281 77.0625 38.9141 77.0625 38.9453C77.0625 38.9766 77.0312 39.0469 76.9688 39.1562C76.9219 39.25 76.8672 39.3594 76.8047 39.4844C76.7578 39.5938 76.7109 39.7031 76.6641 39.8125C76.6172 39.9062 76.5938 39.9688 76.5938 40C76.5781 40.0312 76.5547 40.0859 76.5234 40.1641C76.5078 40.2266 76.4844 40.2969 76.4531 40.375C76.4219 40.4531 76.3906 40.5312 76.3594 40.6094C76.3438 40.6719 76.3359 40.7109 76.3359 40.7266C76.2422 41.0547 76.1172 41.3047 75.9609 41.4766C75.8047 41.6328 75.625 41.8594 75.4219 42.1562C75.25 42.4688 75.1094 42.7969 75 43.1406C74.8906 43.4844 74.7422 43.8125 74.5547 44.125C74.3047 44.5156 74.0312 44.9219 73.7344 45.3438C73.4531 45.75 73.2031 46.1875 72.9844 46.6562V46.6797C72.9844 46.8203 73.1094 46.9375 73.3594 47.0312C73.625 47.1094 73.9219 47.1719 74.25 47.2188C74.5938 47.2656 74.9219 47.2969 75.2344 47.3125C75.5469 47.3281 75.7578 47.3359 75.8672 47.3359H76.3359C76.4766 47.3359 76.6016 47.3281 76.7109 47.3125C76.8203 47.2969 76.9375 47.25 77.0625 47.1719C77.1875 47.2031 77.3828 47.2188 77.6484 47.2188C77.9297 47.2188 78.2266 47.2188 78.5391 47.2188C78.8516 47.2188 79.1328 47.2188 79.3828 47.2188C79.6484 47.2188 79.8516 47.2031 79.9922 47.1719C80.4141 47.1406 80.7188 47.0312 80.9062 46.8438C81.0938 46.6406 81.2891 46.3984 81.4922 46.1172C81.5234 46.1016 81.5703 46.0703 81.6328 46.0234C81.6953 45.9609 81.7578 45.8984 81.8203 45.8359C81.8828 45.7734 81.9375 45.7188 81.9844 45.6719C82.0469 45.6094 82.0859 45.5703 82.1016 45.5547C82.3984 45.2109 82.6172 44.8672 82.7578 44.5234C82.8984 44.1797 83.0391 43.8438 83.1797 43.5156C83.3203 43.1719 83.5 42.8438 83.7188 42.5312C83.9531 42.2031 84.3047 41.8984 84.7734 41.6172C84.8047 41.5859 84.8594 41.5547 84.9375 41.5234C85.0312 41.4922 85.1016 41.4531 85.1484 41.4062H85.2188C85.3438 41.4062 85.4453 41.4609 85.5234 41.5703C85.6016 41.6797 85.6641 41.8125 85.7109 41.9688C85.7578 42.1094 85.7891 42.2578 85.8047 42.4141C85.8203 42.5547 85.8281 42.6562 85.8281 42.7188V43.7734C85.8281 43.8047 85.8516 43.8672 85.8984 43.9609C85.9609 44.0391 85.9922 44.0938 85.9922 44.125C86.0234 44.1406 86.0391 44.1484 86.0391 44.1484V44.1719V44.2656C86.0391 44.3125 86.0234 44.3359 85.9922 44.3359C85.9922 44.3828 85.9609 44.4688 85.8984 44.5938C85.8516 44.7188 85.8281 44.7969 85.8281 44.8281C85.8125 44.8906 85.7891 45.0469 85.7578 45.2969C85.7422 45.5312 85.7266 45.7969 85.7109 46.0938C85.6953 46.375 85.6797 46.6406 85.6641 46.8906C85.6484 47.125 85.6406 47.2734 85.6406 47.3359C85.6406 47.3828 85.6172 47.4766 85.5703 47.6172C85.5391 47.7422 85.5078 47.8281 85.4766 47.875C85.4453 47.9219 85.4062 48 85.3594 48.1094C85.3125 48.2188 85.2578 48.3359 85.1953 48.4609C85.1484 48.5703 85.0938 48.6719 85.0312 48.7656C84.9844 48.8594 84.9375 48.9219 84.8906 48.9531C84.8906 48.9688 84.8672 49 84.8203 49.0469C84.8047 49.0781 84.7891 49.1016 84.7734 49.1172C84.7422 49.1484 84.6719 49.1797 84.5625 49.2109C84.4688 49.2578 84.3594 49.2969 84.2344 49.3281C84.125 49.375 84.0156 49.4141 83.9062 49.4453C83.7969 49.4922 83.7188 49.5156 83.6719 49.5156H83.6016H83.5312C83.5 49.5156 83.4375 49.4922 83.3438 49.4453C83.25 49.4141 83.1484 49.375 83.0391 49.3281C82.9297 49.2969 82.8359 49.2578 82.7578 49.2109C82.6797 49.1797 82.6328 49.1484 82.6172 49.1172H82.5469ZM91.8516 49C91.8516 48.9844 91.8594 48.9688 91.875 48.9531C91.875 48.9375 91.875 48.9297 91.875 48.9297C91.8906 48.9141 91.8984 48.8984 91.8984 48.8828C91.9141 48.8516 91.9609 48.7969 92.0391 48.7188C92.1328 48.6406 92.2266 48.5547 92.3203 48.4609C92.4141 48.3672 92.5 48.2812 92.5781 48.2031C92.6719 48.1094 92.7422 48.0391 92.7891 47.9922L93.0234 47.9453C93.0859 47.9297 93.1406 47.9141 93.1875 47.8984C93.25 47.8828 93.2969 47.875 93.3281 47.875C93.6094 47.7969 93.9141 47.7266 94.2422 47.6641C94.5859 47.5859 94.9062 47.4922 95.2031 47.3828C95.5 47.2578 95.75 47.0938 95.9531 46.8906C96.1719 46.6875 96.2969 46.4062 96.3281 46.0469V44.2656C96.3281 43.4844 96.2891 42.7109 96.2109 41.9453C96.1484 41.1797 96.1328 40.3984 96.1641 39.6016C96.1016 39.4609 95.9844 39.2266 95.8125 38.8984C95.6406 38.5547 95.4609 38.1953 95.2734 37.8203C95.0859 37.4453 94.9062 37.0938 94.7344 36.7656C94.5781 36.4219 94.4688 36.1875 94.4062 36.0625C94.3906 36.0156 94.3359 35.9141 94.2422 35.7578C94.1484 35.6016 94.0469 35.4375 93.9375 35.2656C93.8438 35.0781 93.75 34.9062 93.6562 34.75C93.5781 34.5938 93.5312 34.4922 93.5156 34.4453C93.4844 34.4141 93.4375 34.3203 93.375 34.1641C93.3281 34.0078 93.2734 33.8438 93.2109 33.6719C93.1484 33.4844 93.0938 33.3125 93.0469 33.1562C93 32.9844 92.9688 32.8828 92.9531 32.8516C92.9531 32.7891 92.8984 32.6875 92.7891 32.5469C92.6797 32.4062 92.625 32.3203 92.625 32.2891C92.3125 31.7891 92.0391 31.2656 91.8047 30.7188C91.5859 30.1719 91.3203 29.6328 91.0078 29.1016C90.9766 29.1016 90.9453 29.0469 90.9141 28.9375C90.8828 28.8125 90.8438 28.7266 90.7969 28.6797C90.6875 28.5859 90.4766 28.5078 90.1641 28.4453C89.8516 28.3672 89.5312 28.2734 89.2031 28.1641C88.875 28.0547 88.5859 27.9219 88.3359 27.7656C88.0859 27.5938 87.9609 27.375 87.9609 27.1094C87.9609 26.9844 88 26.8906 88.0781 26.8281C88.1562 26.7656 88.25 26.7188 88.3594 26.6875C88.4688 26.6406 88.5781 26.6172 88.6875 26.6172C88.8125 26.6016 88.9219 26.5859 89.0156 26.5703H90.5156H92.2266C92.2891 26.5859 92.4453 26.6094 92.6953 26.6406C92.9453 26.6562 93.2109 26.6797 93.4922 26.7109C93.7734 26.7266 94.0312 26.7422 94.2656 26.7578C94.5156 26.7734 94.6719 26.7812 94.7344 26.7812H95.4609C95.6172 26.7812 95.7812 26.7891 95.9531 26.8047C96.1406 26.8203 96.3047 26.8594 96.4453 26.9219C96.5859 26.9688 96.7031 27.0469 96.7969 27.1562C96.8906 27.2656 96.9375 27.4141 96.9375 27.6016C96.9375 27.8203 96.8672 27.9844 96.7266 28.0938C96.5859 28.1875 96.4297 28.2734 96.2578 28.3516C96.1016 28.4297 95.9531 28.5234 95.8125 28.6328C95.6875 28.7266 95.625 28.8828 95.625 29.1016V29.2891C95.6719 29.3984 95.7422 29.6094 95.8359 29.9219C95.9297 30.2188 96.0312 30.5391 96.1406 30.8828C96.2656 31.2266 96.3828 31.5547 96.4922 31.8672C96.6016 32.1641 96.6797 32.375 96.7266 32.5C96.7266 32.5312 96.7578 32.6172 96.8203 32.7578C96.8828 32.8828 96.9531 33.0312 97.0312 33.2031C97.1094 33.3594 97.1797 33.5078 97.2422 33.6484C97.3203 33.7891 97.3672 33.875 97.3828 33.9062C97.3984 33.9375 97.4219 34.0078 97.4531 34.1172C97.5 34.2109 97.5469 34.3203 97.5938 34.4453C97.6406 34.5547 97.6797 34.6641 97.7109 34.7734C97.7422 34.8672 97.7656 34.9297 97.7812 34.9609C97.8281 35.0547 97.8906 35.1641 97.9688 35.2891C98.0469 35.4141 98.1406 35.5391 98.25 35.6641C98.3594 35.7734 98.4688 35.8672 98.5781 35.9453C98.7031 36.0234 98.8125 36.0625 98.9062 36.0625H99.0469C99.0625 36.0312 99.1172 35.9688 99.2109 35.875C99.3203 35.7812 99.3828 35.7266 99.3984 35.7109C99.4141 35.6953 99.4453 35.6406 99.4922 35.5469C99.5547 35.4375 99.6094 35.3281 99.6562 35.2188C99.7188 35.0938 99.7734 34.9844 99.8203 34.8906C99.8828 34.7812 99.9219 34.7109 99.9375 34.6797C99.9531 34.6641 99.9844 34.6016 100.031 34.4922C100.078 34.3828 100.133 34.2656 100.195 34.1406C100.258 34.0156 100.312 33.8984 100.359 33.7891C100.406 33.6641 100.438 33.5859 100.453 33.5547C100.484 33.5078 100.539 33.3906 100.617 33.2031C100.695 33.0156 100.75 32.8984 100.781 32.8516C100.922 32.5859 101.07 32.3125 101.227 32.0312C101.398 31.7344 101.555 31.4375 101.695 31.1406C101.852 30.8281 101.977 30.5234 102.07 30.2266C102.18 29.9297 102.234 29.6328 102.234 29.3359C102.234 29.1484 102.094 28.9922 101.812 28.8672C101.531 28.7266 101.227 28.5938 100.898 28.4688C100.57 28.3281 100.266 28.1875 99.9844 28.0469C99.7031 27.8906 99.5625 27.6953 99.5625 27.4609C99.5625 27.3359 99.6094 27.2344 99.7031 27.1562C99.8125 27.0625 99.9297 26.9922 100.055 26.9453C100.195 26.8828 100.328 26.8438 100.453 26.8281C100.594 26.7969 100.703 26.7812 100.781 26.7812H102.773C102.82 26.7812 102.93 26.7812 103.102 26.7812C103.289 26.7656 103.484 26.7578 103.688 26.7578C103.891 26.7422 104.078 26.7266 104.25 26.7109C104.422 26.6953 104.523 26.6797 104.555 26.6641C104.586 26.6641 104.68 26.6641 104.836 26.6641C105.008 26.6484 105.195 26.6328 105.398 26.6172C105.617 26.6016 105.828 26.5938 106.031 26.5938C106.25 26.5781 106.422 26.5703 106.547 26.5703H108.539C108.68 26.5703 108.789 26.6094 108.867 26.6875C108.961 26.7656 109.023 26.8203 109.055 26.8516C109.117 26.9609 109.148 27.0859 109.148 27.2266C109.164 27.3672 109.172 27.4453 109.172 27.4609C109.172 27.4922 109.156 27.5547 109.125 27.6484C109.109 27.7422 109.07 27.8281 109.008 27.9062C108.945 27.9844 108.844 28.0859 108.703 28.2109C108.578 28.3203 108.453 28.3984 108.328 28.4453C108.188 28.4922 108.016 28.5312 107.812 28.5625C107.625 28.5938 107.43 28.625 107.227 28.6562C107.023 28.6875 106.828 28.7344 106.641 28.7969C106.453 28.8594 106.297 28.9609 106.172 29.1016L102.609 32.6641C102.578 32.6953 102.516 32.7812 102.422 32.9219C102.328 33.0625 102.266 33.1484 102.234 33.1797C102.188 33.2422 102.094 33.375 101.953 33.5781C101.812 33.7656 101.664 33.9688 101.508 34.1875C101.352 34.4062 101.203 34.6094 101.062 34.7969C100.922 34.9688 100.828 35.0781 100.781 35.125C100.562 35.4844 100.438 35.8438 100.406 36.2031C100.375 36.5625 100.281 36.9219 100.125 37.2812V38.7109V40.1641C100.125 40.2422 100.125 40.4141 100.125 40.6797C100.141 40.9453 100.148 41.2578 100.148 41.6172C100.164 41.9609 100.18 42.3359 100.195 42.7422C100.211 43.1484 100.227 43.5312 100.242 43.8906C100.258 44.2344 100.266 44.5469 100.266 44.8281C100.281 45.0938 100.289 45.2656 100.289 45.3438V46V46.2344C100.305 46.4062 100.484 46.5469 100.828 46.6562C101.172 46.75 101.555 46.8281 101.977 46.8906C102.414 46.9531 102.828 47.0156 103.219 47.0781C103.625 47.125 103.891 47.1953 104.016 47.2891C104.062 47.3203 104.125 47.3828 104.203 47.4766C104.297 47.5547 104.391 47.6406 104.484 47.7344C104.578 47.8281 104.664 47.9219 104.742 48.0156C104.836 48.0938 104.898 48.1484 104.93 48.1797V48.3906C104.93 48.5312 104.875 48.6406 104.766 48.7188C104.672 48.7812 104.562 48.8359 104.438 48.8828C103.125 48.9453 101.805 48.9922 100.477 49.0234C99.1641 49.0547 97.8438 49.0703 96.5156 49.0703H94.8984C94.6172 49.1172 94.3594 49.1875 94.125 49.2812C93.9062 49.3906 93.6484 49.4453 93.3516 49.4453H92.8828C92.6641 49.4453 92.4375 49.4219 92.2031 49.375C91.9688 49.3281 91.8516 49.2031 91.8516 49Z" fill="white"/>
<rect x="121" width="102" height="63" fill="white"/>
<path d="M137.625 40.8438C137.625 40.875 137.633 40.9375 137.648 41.0312C137.664 41.125 137.68 41.2266 137.695 41.3359C137.727 41.4453 137.75 41.5469 137.766 41.6406C137.781 41.7188 137.789 41.7656 137.789 41.7812V42.1562C137.789 42.2812 137.797 42.4609 137.812 42.6953C137.828 42.9141 137.844 43.1406 137.859 43.375C137.891 43.5938 137.914 43.7969 137.93 43.9844C137.961 44.1562 137.992 44.25 138.023 44.2656C138.023 44.3281 138.039 44.4141 138.07 44.5234C138.117 44.6172 138.141 44.7188 138.141 44.8281V45.8828C138.188 46.3516 138.336 46.7266 138.586 47.0078C138.852 47.2734 139.164 47.4766 139.523 47.6172C139.883 47.7422 140.266 47.8203 140.672 47.8516C141.078 47.8828 141.453 47.8984 141.797 47.8984C141.859 47.8984 141.953 47.8984 142.078 47.8984C142.219 47.8984 142.359 47.8984 142.5 47.8984C142.641 47.8984 142.773 47.8984 142.898 47.8984C143.039 47.8828 143.141 47.875 143.203 47.875C143.359 47.6094 143.586 47.4375 143.883 47.3594C144.195 47.2812 144.484 47.2188 144.75 47.1719C144.891 47.1562 145.07 47.1328 145.289 47.1016C145.523 47.0547 145.75 47.0156 145.969 46.9844C146.188 46.9375 146.375 46.8984 146.531 46.8672C146.688 46.8359 146.773 46.8203 146.789 46.8203C146.836 46.7891 146.953 46.7109 147.141 46.5859C147.328 46.4609 147.531 46.3281 147.75 46.1875C147.969 46.0312 148.172 45.8906 148.359 45.7656C148.562 45.6406 148.695 45.5547 148.758 45.5078C148.773 45.4922 148.828 45.4609 148.922 45.4141C149.031 45.3672 149.141 45.3203 149.25 45.2734C149.359 45.2109 149.469 45.1562 149.578 45.1094C149.688 45.0625 149.766 45.0312 149.812 45.0156C149.844 44.9844 149.93 44.9453 150.07 44.8984C150.227 44.8516 150.32 44.8281 150.352 44.8281C150.414 44.7812 150.484 44.7109 150.562 44.6172C150.656 44.5234 150.742 44.4219 150.82 44.3125C150.914 44.1875 150.992 44.0703 151.055 43.9609C151.117 43.8516 151.164 43.7734 151.195 43.7266C151.242 43.7266 151.32 43.7109 151.43 43.6797C151.539 43.6328 151.609 43.6094 151.641 43.6094C152.078 43.1562 152.492 42.6562 152.883 42.1094C153.289 41.5625 153.648 41.0312 153.961 40.5156C154.148 40.2031 154.266 39.9062 154.312 39.625C154.375 39.3281 154.484 39.0312 154.641 38.7344C154.672 38.7031 154.703 38.6406 154.734 38.5469C154.766 38.4531 154.789 38.4062 154.805 38.4062C154.852 38.2812 154.93 38.1094 155.039 37.8906C155.164 37.6562 155.227 37.5078 155.227 37.4453C155.227 37.4141 155.242 37.3438 155.273 37.2344C155.305 37.1094 155.336 36.9766 155.367 36.8359C155.414 36.6953 155.445 36.5703 155.461 36.4609C155.492 36.3359 155.508 36.2578 155.508 36.2266C155.633 35.8203 155.789 35.3906 155.977 34.9375C156.18 34.4688 156.281 34.0078 156.281 33.5547V33.3438C156.281 33.3281 156.273 33.2812 156.258 33.2031C156.242 33.1094 156.219 33.0156 156.188 32.9219C156.172 32.8125 156.156 32.7188 156.141 32.6406C156.125 32.5469 156.117 32.4844 156.117 32.4531V31C156.117 30.9844 156.109 30.9297 156.094 30.8359C156.078 30.7422 156.055 30.6406 156.023 30.5312C156.008 30.4219 155.992 30.3203 155.977 30.2266C155.961 30.1172 155.953 30.0391 155.953 29.9922C155.922 29.9141 155.875 29.8047 155.812 29.6641C155.766 29.5234 155.742 29.4375 155.742 29.4062C155.68 29.0469 155.625 28.6797 155.578 28.3047C155.547 27.9297 155.477 27.5703 155.367 27.2266C155.086 26.3516 154.711 25.4766 154.242 24.6016C153.789 23.7266 153.266 22.9375 152.672 22.2344C152.656 22.2031 152.594 22.1406 152.484 22.0469C152.391 21.9375 152.281 21.8203 152.156 21.6953C152.047 21.5703 151.938 21.4531 151.828 21.3438C151.719 21.2344 151.656 21.1562 151.641 21.1094C151.609 21.0938 151.562 21.0469 151.5 20.9688C151.453 20.875 151.398 20.7812 151.336 20.6875C151.289 20.5781 151.234 20.4844 151.172 20.4062C151.125 20.3125 151.094 20.2578 151.078 20.2422C151.047 20.2109 150.953 20.1562 150.797 20.0781C150.641 19.9844 150.547 19.9219 150.516 19.8906C150.156 19.6094 149.773 19.3594 149.367 19.1406C148.977 18.9062 148.602 18.6719 148.242 18.4375C148.164 18.4062 148.078 18.375 147.984 18.3438C147.891 18.3125 147.844 18.2891 147.844 18.2734C147.812 18.2578 147.734 18.2344 147.609 18.2031C147.5 18.1719 147.375 18.1406 147.234 18.1094C147.094 18.0625 146.961 18.0156 146.836 17.9688C146.727 17.9219 146.656 17.8828 146.625 17.8516C146.594 17.8516 146.539 17.8281 146.461 17.7812C146.398 17.7344 146.32 17.6875 146.227 17.6406C146.148 17.5781 146.07 17.5234 145.992 17.4766C145.93 17.4141 145.898 17.3828 145.898 17.3828C145.445 17.0859 144.969 16.8984 144.469 16.8203C143.969 16.7266 143.469 16.6797 142.969 16.6797H142.078C141.75 16.6172 141.422 16.5391 141.094 16.4453C140.781 16.3359 140.445 16.2812 140.086 16.2812C139.898 16.2812 139.703 16.3359 139.5 16.4453C139.312 16.5391 139.133 16.6641 138.961 16.8203C138.805 16.9766 138.672 17.1484 138.562 17.3359C138.453 17.5234 138.383 17.6953 138.352 17.8516C138.32 17.9609 138.281 18.1172 138.234 18.3203C138.203 18.5078 138.172 18.7031 138.141 18.9062C138.109 19.0938 138.078 19.2656 138.047 19.4219C138.031 19.5781 138.023 19.6797 138.023 19.7266C137.992 19.8047 137.961 19.9844 137.93 20.2656C137.914 20.5312 137.891 20.8281 137.859 21.1562C137.844 21.4688 137.828 21.7656 137.812 22.0469C137.797 22.3281 137.789 22.5 137.789 22.5625C137.789 22.625 137.766 22.7578 137.719 22.9609C137.672 23.1484 137.641 23.2734 137.625 23.3359V23.9453V24.5547C137.641 24.5859 137.672 24.7031 137.719 24.9062C137.766 25.0938 137.789 25.2031 137.789 25.2344C137.82 25.4375 137.852 25.7266 137.883 26.1016C137.93 26.4766 137.969 26.8594 138 27.25C138.047 27.625 138.078 27.9688 138.094 28.2812C138.125 28.5938 138.141 28.7812 138.141 28.8438C138.141 28.9062 138.133 29 138.117 29.125C138.117 29.25 138.109 29.3828 138.094 29.5234C138.078 29.6484 138.062 29.7656 138.047 29.875C138.047 29.9844 138.039 30.0625 138.023 30.1094V38.875C138.023 38.9062 138.008 38.9844 137.977 39.1094C137.961 39.2344 137.938 39.375 137.906 39.5312C137.891 39.6875 137.867 39.8438 137.836 40C137.805 40.1406 137.789 40.25 137.789 40.3281C137.789 40.3594 137.758 40.4531 137.695 40.6094C137.648 40.75 137.625 40.8281 137.625 40.8438ZM128.648 49.2812C128.383 49.1406 128.195 49.0312 128.086 48.9531C127.977 48.8594 127.922 48.6719 127.922 48.3906C127.922 48.25 127.969 48.1172 128.062 47.9922C128.172 47.8672 128.297 47.7578 128.438 47.6641C128.578 47.5703 128.727 47.5 128.883 47.4531C129.055 47.3906 129.211 47.3516 129.352 47.3359C129.695 47.3047 130.094 47.2656 130.547 47.2188C131 47.1562 131.438 47.125 131.859 47.125C132 47.125 132.133 47.1328 132.258 47.1484C132.383 47.1641 132.492 47.1719 132.586 47.1719C132.773 47.0469 132.922 46.8828 133.031 46.6797C133.156 46.4609 133.25 46.2578 133.312 46.0703V44.1016V42.1562C133.297 41.6875 133.234 41.2188 133.125 40.75C133.016 40.2812 132.961 39.8125 132.961 39.3438C132.961 39.1719 132.969 39.0391 132.984 38.9453C133 38.8516 133.047 38.7188 133.125 38.5469V33.5547C133.047 33.1953 132.969 32.8359 132.891 32.4766C132.828 32.1172 132.797 31.7578 132.797 31.3984C132.797 30.8672 132.812 30.3438 132.844 29.8281C132.891 29.3125 132.984 28.8125 133.125 28.3281V20.2422C133.047 20.0078 132.992 19.7422 132.961 19.4453C132.93 19.1328 132.914 18.8203 132.914 18.5078C132.914 18.3359 132.914 18.1719 132.914 18.0156C132.914 17.8438 132.93 17.6953 132.961 17.5703C132.914 17.5391 132.828 17.5078 132.703 17.4766C132.594 17.4297 132.469 17.3906 132.328 17.3594C132.188 17.3125 132.055 17.2812 131.93 17.2656C131.82 17.2344 131.742 17.2188 131.695 17.2188C131.664 17.2188 131.602 17.2109 131.508 17.1953C131.43 17.1797 131.328 17.1719 131.203 17.1719C130.938 17.1719 130.664 17.1797 130.383 17.1953C130.117 17.2109 129.961 17.2188 129.914 17.2188C129.773 17.2031 129.609 17.1797 129.422 17.1484C129.234 17.1016 129.047 17.0391 128.859 16.9609C128.688 16.8828 128.539 16.7891 128.414 16.6797C128.305 16.5547 128.25 16.4062 128.25 16.2344C128.25 16.0781 128.289 15.9453 128.367 15.8359C128.445 15.7266 128.539 15.6328 128.648 15.5547C128.773 15.4766 128.898 15.4141 129.023 15.3672C129.148 15.3203 129.258 15.2734 129.352 15.2266C129.539 15.2109 129.758 15.2031 130.008 15.2031C130.258 15.1875 130.516 15.1797 130.781 15.1797C131.047 15.1797 131.305 15.1797 131.555 15.1797C131.805 15.1797 132.016 15.1797 132.188 15.1797C132.75 15.1797 133.336 15.1875 133.945 15.2031C134.555 15.2188 135.078 15.2812 135.516 15.3906C135.734 15.2031 136.008 15.1016 136.336 15.0859C136.664 15.0703 136.969 15.0469 137.25 15.0156C137.312 15.0156 137.422 15.0234 137.578 15.0391C137.75 15.0391 137.945 15.0391 138.164 15.0391C138.383 15.0391 138.617 15.0469 138.867 15.0625C139.117 15.0625 139.352 15.0625 139.57 15.0625C139.789 15.0625 139.977 15.0547 140.133 15.0391C140.305 15.0234 140.414 15.0156 140.461 15.0156C140.508 15.0156 140.617 15 140.789 14.9688C140.977 14.9375 141.172 14.8984 141.375 14.8516C141.578 14.8047 141.766 14.7656 141.938 14.7344C142.125 14.7031 142.25 14.6875 142.312 14.6875C142.359 14.6875 142.477 14.6953 142.664 14.7109C142.852 14.7109 142.969 14.75 143.016 14.8281H144.75C145.141 14.8281 145.516 14.8359 145.875 14.8516C146.234 14.8516 146.484 14.8672 146.625 14.8984C146.672 14.8984 146.758 14.9062 146.883 14.9219C147.008 14.9219 147.141 14.9297 147.281 14.9453C147.422 14.9609 147.562 14.9766 147.703 14.9922C147.844 15.0078 147.945 15.0156 148.008 15.0156C148.992 15.2031 149.953 15.4141 150.891 15.6484C151.844 15.8828 152.742 16.2656 153.586 16.7969C153.617 16.8281 153.68 16.8906 153.773 16.9844C153.867 17.0781 153.961 17.1797 154.055 17.2891C154.164 17.3828 154.258 17.4766 154.336 17.5703C154.43 17.6484 154.492 17.6875 154.523 17.6875C154.664 17.8281 154.805 17.9297 154.945 17.9922C155.086 18.0547 155.227 18.1094 155.367 18.1562C155.523 18.1875 155.68 18.2188 155.836 18.25C155.992 18.2812 156.141 18.3438 156.281 18.4375C156.766 18.7656 157.258 19.2188 157.758 19.7969C158.258 20.375 158.719 21.0078 159.141 21.6953C159.562 22.3672 159.93 23.0547 160.242 23.7578C160.57 24.4609 160.797 25.0938 160.922 25.6562C160.938 25.7031 160.961 25.8281 160.992 26.0312C161.039 26.2344 161.078 26.4609 161.109 26.7109C161.156 26.9453 161.195 27.1719 161.227 27.3906C161.258 27.5938 161.281 27.7266 161.297 27.7891C161.312 27.8203 161.336 27.875 161.367 27.9531C161.398 28.0312 161.43 28.125 161.461 28.2344C161.508 28.3281 161.547 28.4219 161.578 28.5156C161.609 28.5938 161.625 28.6484 161.625 28.6797C161.656 28.7109 161.672 28.8438 161.672 29.0781C161.672 29.3125 161.672 29.4922 161.672 29.6172C161.672 31.1328 161.562 32.6094 161.344 34.0469C161.125 35.4844 160.812 36.9375 160.406 38.4062C160.219 39.0625 159.961 39.6875 159.633 40.2812C159.305 40.8594 158.938 41.4141 158.531 41.9453C158.125 42.4766 157.68 42.9844 157.195 43.4688C156.727 43.9375 156.242 44.3906 155.742 44.8281C155.711 44.8438 155.641 44.9062 155.531 45.0156C155.438 45.125 155.328 45.2422 155.203 45.3672C155.078 45.4922 154.961 45.6094 154.852 45.7188C154.742 45.8125 154.672 45.8672 154.641 45.8828C154.609 45.9297 154.508 45.9922 154.336 46.0703C154.164 46.1328 153.977 46.2031 153.773 46.2812C153.586 46.3594 153.398 46.4297 153.211 46.4922C153.023 46.5547 152.906 46.5938 152.859 46.6094C152.266 46.8906 151.672 47.1875 151.078 47.5C150.5 47.7969 149.906 48.0547 149.297 48.2734C149.109 48.3359 148.93 48.3828 148.758 48.4141C148.586 48.4297 148.414 48.4453 148.242 48.4609C148.07 48.4766 147.891 48.4922 147.703 48.5078C147.516 48.5234 147.32 48.5547 147.117 48.6016C147.086 48.6016 147.023 48.6328 146.93 48.6953C146.852 48.7422 146.805 48.7734 146.789 48.7891C146.727 48.8203 146.641 48.8594 146.531 48.9062C146.438 48.9375 146.344 48.9688 146.25 49C146.156 49.0312 146.07 49.0547 145.992 49.0703C145.93 49.1016 145.898 49.1172 145.898 49.1172H144.75C144.719 49.1172 144.641 49.125 144.516 49.1406C144.406 49.1562 144.281 49.1719 144.141 49.1875C144.016 49.2188 143.891 49.2422 143.766 49.2578C143.641 49.2734 143.562 49.2812 143.531 49.2812C143.516 49.2812 143.422 49.2891 143.25 49.3047C143.078 49.3203 142.961 49.3281 142.898 49.3281C141.836 49.3281 140.773 49.2891 139.711 49.2109C138.648 49.1484 137.602 49.1172 136.57 49.1172H135.516C135.453 49.1172 135.32 49.1406 135.117 49.1875C134.914 49.25 134.805 49.2812 134.789 49.2812H134.695H134.531C134.484 49.2812 134.359 49.2734 134.156 49.2578C133.953 49.2422 133.727 49.2188 133.477 49.1875C133.242 49.1719 133.016 49.1562 132.797 49.1406C132.594 49.125 132.461 49.1172 132.398 49.1172H132.352H132.258C132.086 49.1641 131.852 49.2422 131.555 49.3516C131.258 49.4609 131.008 49.5156 130.805 49.5156H130.594C130.516 49.5156 130.383 49.5 130.195 49.4688C130.023 49.4531 129.828 49.4297 129.609 49.3984C129.406 49.3828 129.211 49.3594 129.023 49.3281C128.852 49.3125 128.727 49.2969 128.648 49.2812ZM165.375 49C165.375 48.9375 165.328 48.8516 165.234 48.7422C165.156 48.6172 165.109 48.5156 165.094 48.4375V48.3438V48.3203C165.125 48.2578 165.195 48.1641 165.305 48.0391C165.414 47.9141 165.531 47.7891 165.656 47.6641C165.797 47.5234 165.922 47.3984 166.031 47.2891C166.156 47.1797 166.242 47.1016 166.289 47.0547C166.32 47.0234 166.422 46.9922 166.594 46.9609C166.781 46.9141 166.914 46.8906 166.992 46.8906H168.656C168.703 46.8906 168.766 46.8828 168.844 46.8672C168.938 46.8359 169.023 46.8125 169.102 46.7969C169.195 46.7656 169.273 46.7344 169.336 46.7031C169.414 46.6719 169.453 46.6562 169.453 46.6562C169.672 46.5469 169.797 46.375 169.828 46.1406C169.875 45.8906 169.898 45.6562 169.898 45.4375V45.0625C169.898 44.5156 169.883 44 169.852 43.5156C169.836 43.0156 169.828 42.4922 169.828 41.9453V41.7812C169.828 41.7344 169.836 41.6484 169.852 41.5234C169.867 41.3984 169.883 41.2656 169.898 41.125C169.93 40.9688 169.961 40.8281 169.992 40.7031C170.023 40.5781 170.047 40.4922 170.062 40.4453V30.2266C170.062 29.9141 170.008 29.6641 169.898 29.4766C169.789 29.2891 169.648 29.1484 169.477 29.0547C169.305 28.9453 169.102 28.875 168.867 28.8438C168.648 28.8125 168.414 28.7969 168.164 28.7969H167.203C166.766 28.7969 166.398 28.7422 166.102 28.6328C165.805 28.5234 165.656 28.2578 165.656 27.8359C165.656 27.6953 165.656 27.5703 165.656 27.4609C165.672 27.3516 165.711 27.2031 165.773 27.0156C166.523 27.0469 167.258 27.0234 167.977 26.9453C168.695 26.8672 169.422 26.8281 170.156 26.8281H170.766C170.828 26.8438 170.953 26.8594 171.141 26.875C171.344 26.8906 171.547 26.9062 171.75 26.9219C171.969 26.9375 172.172 26.9531 172.359 26.9688C172.547 26.9844 172.68 27 172.758 27.0156H183.773C184.242 27.0156 184.578 27.1406 184.781 27.3906C184.984 27.625 185.133 27.9219 185.227 28.2812V29.6172V31C185.227 31.0938 185.211 31.2656 185.18 31.5156C185.148 31.75 185.109 32.0078 185.062 32.2891C185.031 32.5547 184.992 32.8203 184.945 33.0859C184.914 33.3359 184.891 33.5156 184.875 33.625C184.844 33.6719 184.789 33.7422 184.711 33.8359C184.633 33.9141 184.578 33.9531 184.547 33.9531C184.547 33.9844 184.531 34 184.5 34H184.477H184.406C184.359 34 184.336 33.9844 184.336 33.9531C184.07 33.7656 183.867 33.5547 183.727 33.3203C183.586 33.0703 183.469 32.8125 183.375 32.5469C183.281 32.2812 183.195 32.0156 183.117 31.75C183.039 31.4844 182.922 31.2344 182.766 31C182.734 30.9375 182.633 30.8359 182.461 30.6953C182.305 30.5391 182.219 30.4531 182.203 30.4375C182.172 30.4062 182.102 30.3203 181.992 30.1797C181.898 30.0391 181.789 29.8906 181.664 29.7344C181.555 29.5625 181.445 29.4062 181.336 29.2656C181.242 29.125 181.18 29.0391 181.148 29.0078C181.086 28.8672 181.016 28.7969 180.938 28.7969C180.922 28.7969 180.867 28.7891 180.773 28.7734C180.695 28.7578 180.602 28.7422 180.492 28.7266C180.398 28.6953 180.305 28.6719 180.211 28.6562C180.133 28.6406 180.094 28.625 180.094 28.6094C180.047 28.6094 179.961 28.5938 179.836 28.5625C179.711 28.5312 179.57 28.5 179.414 28.4688C179.273 28.4375 179.141 28.4062 179.016 28.375C178.891 28.3281 178.812 28.2969 178.781 28.2812H178.664C178.602 28.2812 178.516 28.3047 178.406 28.3516C178.297 28.3828 178.219 28.3984 178.172 28.3984H178.102C178.055 28.3828 177.922 28.3672 177.703 28.3516C177.5 28.3359 177.273 28.3281 177.023 28.3281C176.773 28.3125 176.539 28.3047 176.32 28.3047C176.117 28.2891 175.992 28.2812 175.945 28.2812H175.875C175.594 28.2812 175.359 28.3359 175.172 28.4453C174.984 28.5547 174.828 28.6953 174.703 28.8672C174.594 29.0391 174.492 29.2344 174.398 29.4531C174.32 29.6562 174.242 29.8594 174.164 30.0625C174.148 30.2344 174.117 30.5156 174.07 30.9062C174.039 31.2969 174 31.7109 173.953 32.1484C173.922 32.5859 173.891 33 173.859 33.3906C173.828 33.7812 173.812 34.0547 173.812 34.2109V34.3984V34.5156C173.812 34.5938 173.82 34.7266 173.836 34.9141C173.852 35.1016 173.867 35.3047 173.883 35.5234C173.898 35.7266 173.914 35.9297 173.93 36.1328C173.961 36.3203 173.984 36.4453 174 36.5078C174.109 36.6484 174.234 36.7891 174.375 36.9297C174.531 37.0703 174.695 37.1641 174.867 37.2109H176.156C176.688 37.2109 177.148 37.2031 177.539 37.1875C177.945 37.1719 178.43 37.125 178.992 37.0469C179.008 37.0156 179.031 36.9609 179.062 36.8828C179.094 36.8047 179.133 36.7266 179.18 36.6484C179.227 36.5703 179.266 36.5 179.297 36.4375C179.328 36.375 179.352 36.3359 179.367 36.3203C179.43 36.2109 179.508 36.0547 179.602 35.8516C179.695 35.6328 179.789 35.4219 179.883 35.2188C179.977 35 180.055 34.8125 180.117 34.6562C180.195 34.5 180.242 34.4141 180.258 34.3984C180.289 34.3359 180.32 34.2031 180.352 34C180.383 33.7812 180.414 33.6562 180.445 33.625C180.57 33.4844 180.734 33.3906 180.938 33.3438C181.141 33.2969 181.344 33.2734 181.547 33.2734C181.766 33.2734 181.898 33.3594 181.945 33.5312C182.008 33.6875 182.039 33.8672 182.039 34.0703V34.6562V34.9375C182.039 35.0781 182.023 35.2188 181.992 35.3594C181.961 35.4844 181.906 35.6094 181.828 35.7344C181.812 35.875 181.797 36.1094 181.781 36.4375C181.766 36.7656 181.75 37.1094 181.734 37.4688C181.719 37.8281 181.703 38.1719 181.688 38.5C181.672 38.8125 181.664 39.0312 181.664 39.1562V39.7656V41.1719C181.648 41.2031 181.633 41.2734 181.617 41.3828C181.602 41.4922 181.586 41.6172 181.57 41.7578C181.57 41.8828 181.562 42.0078 181.547 42.1328C181.531 42.2578 181.516 42.3438 181.5 42.3906C181.328 42.5156 181.172 42.6094 181.031 42.6719C180.906 42.7344 180.75 42.7656 180.562 42.7656C180.438 42.7656 180.32 42.7188 180.211 42.625C180.102 42.5156 180 42.3828 179.906 42.2266C179.812 42.0703 179.734 41.9141 179.672 41.7578C179.609 41.5859 179.57 41.4297 179.555 41.2891C179.539 41.2422 179.516 41.1406 179.484 40.9844C179.469 40.8125 179.453 40.6328 179.438 40.4453C179.422 40.2422 179.406 40.0547 179.391 39.8828C179.375 39.7109 179.367 39.5859 179.367 39.5078C179.32 39.4453 179.234 39.3906 179.109 39.3438C179 39.2812 178.891 39.2188 178.781 39.1562C178.688 39.125 178.539 39.0859 178.336 39.0391C178.133 38.9922 177.914 38.9531 177.68 38.9219C177.461 38.875 177.25 38.8438 177.047 38.8281C176.859 38.7969 176.734 38.7812 176.672 38.7812C176.625 38.7812 176.539 38.7812 176.414 38.7812C176.305 38.7656 176.172 38.7578 176.016 38.7578C175.875 38.7578 175.734 38.7578 175.594 38.7578C175.453 38.7422 175.344 38.7344 175.266 38.7344C175.219 38.7344 175.141 38.7422 175.031 38.7578C174.938 38.7578 174.836 38.7578 174.727 38.7578C174.633 38.7578 174.547 38.7656 174.469 38.7812C174.391 38.7812 174.344 38.7812 174.328 38.7812L174 39.1562V39.9531C174 40.875 173.969 41.7656 173.906 42.625C173.844 43.4688 173.812 44.3516 173.812 45.2734C173.812 45.7422 173.852 46.0859 173.93 46.3047C174.008 46.5234 174.133 46.6797 174.305 46.7734C174.477 46.8672 174.695 46.9375 174.961 46.9844C175.227 47.0312 175.555 47.1094 175.945 47.2188C175.977 47.2188 176.031 47.2422 176.109 47.2891C176.188 47.3359 176.242 47.3828 176.273 47.4297H178.102H179.836C179.867 47.4297 179.938 47.4219 180.047 47.4062C180.156 47.375 180.273 47.3516 180.398 47.3359C180.523 47.3047 180.633 47.2812 180.727 47.2656C180.836 47.2344 180.906 47.2188 180.938 47.2188H182.062H182.508C182.539 47.2188 182.594 47.1953 182.672 47.1484C182.75 47.0859 182.828 47.0234 182.906 46.9609C183 46.8828 183.078 46.8125 183.141 46.75C183.203 46.6875 183.242 46.6562 183.258 46.6562C183.367 46.6094 183.453 46.5859 183.516 46.5859C183.594 46.5703 183.656 46.5625 183.703 46.5625C183.75 46.5469 183.797 46.5234 183.844 46.4922C183.891 46.4453 183.938 46.375 183.984 46.2812C184.156 46.0312 184.281 45.7734 184.359 45.5078C184.438 45.2422 184.539 44.9766 184.664 44.7109C184.727 44.6641 184.805 44.5703 184.898 44.4297C184.992 44.2734 185.047 44.1719 185.062 44.125C185.078 44.125 185.125 44.1016 185.203 44.0547C185.281 43.9922 185.359 43.9297 185.438 43.8672C185.516 43.7891 185.586 43.7188 185.648 43.6562C185.711 43.5781 185.75 43.5234 185.766 43.4922C185.781 43.4453 185.812 43.3828 185.859 43.3047C185.922 43.2109 185.984 43.1172 186.047 43.0234C186.109 42.9141 186.164 42.8203 186.211 42.7422C186.273 42.6484 186.312 42.5859 186.328 42.5547C186.328 42.5391 186.352 42.5078 186.398 42.4609C186.43 42.4453 186.461 42.4219 186.492 42.3906C186.492 42.3594 186.5 42.3438 186.516 42.3438H186.562C186.797 42.3438 186.938 42.4375 186.984 42.625C187.031 42.7969 187.055 42.9766 187.055 43.1641V43.6562C187.055 43.7344 187.062 43.9219 187.078 44.2188C187.094 44.5156 187.102 44.8359 187.102 45.1797C187.117 45.5078 187.133 45.8203 187.148 46.1172C187.164 46.4141 187.172 46.5938 187.172 46.6562V46.7266C187.172 46.9297 187.133 47.1641 187.055 47.4297C186.977 47.6797 186.867 47.9219 186.727 48.1562C186.586 48.3906 186.414 48.5859 186.211 48.7422C186.023 48.8984 185.82 48.9844 185.602 49C185.492 48.9844 185.289 48.9688 184.992 48.9531C184.711 48.9375 184.406 48.9219 184.078 48.9062C183.75 48.8906 183.438 48.875 183.141 48.8594C182.844 48.8438 182.633 48.8203 182.508 48.7891H182.062H181.664C181.586 48.8203 181.406 48.8516 181.125 48.8828C180.844 48.8984 180.539 48.9141 180.211 48.9297C179.898 48.9453 179.594 48.9609 179.297 48.9766C179.016 48.9922 178.844 49 178.781 49H169.898C169.852 49.0156 169.773 49.0312 169.664 49.0469C169.57 49.0625 169.461 49.0703 169.336 49.0703C169.227 49.0859 169.117 49.0938 169.008 49.0938C168.898 49.1094 168.82 49.1172 168.773 49.1172C168.773 49.1484 168.719 49.1641 168.609 49.1641C168.5 49.1641 168.398 49.1562 168.305 49.1406C168.211 49.125 168.148 49.1172 168.117 49.1172C168.055 49.1641 167.93 49.2188 167.742 49.2812C167.555 49.3438 167.422 49.375 167.344 49.375C167.266 49.375 167.133 49.3594 166.945 49.3281C166.773 49.2969 166.586 49.2578 166.383 49.2109C166.18 49.1797 165.984 49.1406 165.797 49.0938C165.609 49.0625 165.469 49.0312 165.375 49ZM189.492 28.6094C189.32 28.5 189.188 28.3438 189.094 28.1406C189.016 27.9219 188.977 27.7109 188.977 27.5078C188.977 27.3672 189.062 27.2109 189.234 27.0391C189.406 26.8672 189.562 26.7812 189.703 26.7812H194.367H194.859L198.82 26.6172C199.133 26.6172 199.391 26.6875 199.594 26.8281C199.812 26.9688 199.922 27.1953 199.922 27.5078C199.922 27.8359 199.852 28.0781 199.711 28.2344C199.57 28.3906 199.391 28.5078 199.172 28.5859C198.953 28.6484 198.719 28.6875 198.469 28.7031C198.234 28.7188 198.008 28.75 197.789 28.7969C197.57 28.8438 197.391 28.9219 197.25 29.0312C197.109 29.1406 197.039 29.3203 197.039 29.5703C197.039 29.9609 197.094 30.3203 197.203 30.6484C197.328 30.9609 197.461 31.2812 197.602 31.6094C197.805 32.1719 197.984 32.7422 198.141 33.3203C198.297 33.8984 198.484 34.4766 198.703 35.0547C198.844 35.4609 199.008 35.8281 199.195 36.1562C199.398 36.4844 199.57 36.8359 199.711 37.2109L199.805 37.4922C199.836 37.5703 199.859 37.6484 199.875 37.7266C199.906 37.8047 199.922 37.8594 199.922 37.8906C199.922 37.9375 199.93 38.0078 199.945 38.1016C199.961 38.1797 199.977 38.2656 199.992 38.3594C200.023 38.4531 200.047 38.5391 200.062 38.6172C200.078 38.6953 200.086 38.75 200.086 38.7812L201.703 42.0156C201.766 42.0938 201.867 42.1406 202.008 42.1562C202.148 42.1719 202.25 42.1797 202.312 42.1797C202.469 42.1797 202.594 42.125 202.688 42.0156C202.781 41.8906 202.852 41.75 202.898 41.5938C202.961 41.4375 203 41.2812 203.016 41.125C203.047 40.9688 203.078 40.8516 203.109 40.7734C203.109 40.7266 203.18 40.6719 203.32 40.6094C203.461 40.5312 203.531 40.4766 203.531 40.4453C203.781 39.8828 203.984 39.2656 204.141 38.5938C204.297 37.9062 204.445 37.2656 204.586 36.6719C204.727 36.0312 204.914 35.4219 205.148 34.8438C205.398 34.2656 205.57 33.6562 205.664 33.0156C205.664 32.9844 205.672 32.9062 205.688 32.7812C205.703 32.6406 205.719 32.4922 205.734 32.3359C205.766 32.1797 205.789 32.0312 205.805 31.8906C205.82 31.75 205.828 31.6562 205.828 31.6094C205.844 31.5625 205.875 31.4453 205.922 31.2578C205.969 31.0547 206.008 30.8438 206.039 30.625C206.086 30.4062 206.125 30.2031 206.156 30.0156C206.188 29.8281 206.203 29.7109 206.203 29.6641V29.5469V29.4531C206.156 29.4062 206.094 29.3359 206.016 29.2422C205.938 29.1484 205.852 29.0625 205.758 28.9844C205.664 28.8906 205.562 28.8125 205.453 28.75C205.344 28.6719 205.242 28.625 205.148 28.6094C204.93 28.5625 204.734 28.5312 204.562 28.5156C204.391 28.4844 204.219 28.4531 204.047 28.4219C203.875 28.3906 203.703 28.3516 203.531 28.3047C203.359 28.2422 203.172 28.1562 202.969 28.0469C202.891 27.9688 202.844 27.8828 202.828 27.7891C202.812 27.6797 202.805 27.5859 202.805 27.5078C202.805 27.3359 202.852 27.1641 202.945 26.9922C203.055 26.8203 203.195 26.6953 203.367 26.6172H204.586C205.32 26.6172 206.023 26.6484 206.695 26.7109C207.383 26.7578 208.086 26.7812 208.805 26.7812C209.305 26.7812 209.805 26.7578 210.305 26.7109C210.82 26.6484 211.344 26.6172 211.875 26.6172C212.016 26.6172 212.172 26.625 212.344 26.6406C212.531 26.6406 212.703 26.6641 212.859 26.7109C213.031 26.7578 213.172 26.8281 213.281 26.9219C213.406 27.0156 213.469 27.1562 213.469 27.3438C213.469 27.3906 213.461 27.4609 213.445 27.5547C213.445 27.6328 213.406 27.6719 213.328 27.6719C213.188 27.9688 212.992 28.2031 212.742 28.375C212.492 28.5312 212.219 28.6719 211.922 28.7969C211.641 28.9219 211.352 29.0469 211.055 29.1719C210.773 29.2969 210.531 29.4609 210.328 29.6641C210.25 29.7422 210.125 29.8828 209.953 30.0859C209.797 30.2891 209.625 30.5 209.438 30.7188C209.25 30.9375 209.07 31.1484 208.898 31.3516C208.742 31.5547 208.641 31.7031 208.594 31.7969C208.188 32.3281 207.898 32.9141 207.727 33.5547C207.555 34.1953 207.359 34.8047 207.141 35.3828C207.109 35.4297 207.055 35.5234 206.977 35.6641C206.898 35.8047 206.812 35.9531 206.719 36.1094C206.641 36.2656 206.562 36.4141 206.484 36.5547C206.422 36.6953 206.383 36.7891 206.367 36.8359C206.32 36.9297 206.227 37.1797 206.086 37.5859C205.961 37.9766 205.82 38.4062 205.664 38.875C205.508 39.3438 205.359 39.7812 205.219 40.1875C205.094 40.5938 205.016 40.8516 204.984 40.9609C204.938 41.0078 204.852 41.1406 204.727 41.3594C204.617 41.5781 204.5 41.8125 204.375 42.0625C204.25 42.2969 204.133 42.5234 204.023 42.7422C203.914 42.9453 203.844 43.0703 203.812 43.1172C203.797 43.1641 203.75 43.2969 203.672 43.5156C203.594 43.7344 203.508 43.9766 203.414 44.2422C203.32 44.5078 203.227 44.7734 203.133 45.0391C203.055 45.2891 203 45.4844 202.969 45.625C202.969 45.6562 202.953 45.7344 202.922 45.8594C202.891 45.9844 202.852 46.1172 202.805 46.2578C202.758 46.3984 202.711 46.5312 202.664 46.6562C202.633 46.7812 202.609 46.8594 202.594 46.8906C202.594 46.9375 202.57 46.9766 202.523 47.0078C202.492 47.0234 202.477 47.0547 202.477 47.1016C202.211 47.4609 202.016 47.8594 201.891 48.2969C201.766 48.7344 201.578 49.1562 201.328 49.5625C201.234 49.7031 201.023 49.7734 200.695 49.7734C200.648 49.7734 200.562 49.7578 200.438 49.7266C200.375 49.7109 200.32 49.6875 200.273 49.6562C200.242 49.6562 200.18 49.6016 200.086 49.4922C200.008 49.3828 199.953 49.2891 199.922 49.2109C199.703 48.7734 199.547 48.3281 199.453 47.875C199.359 47.4062 199.227 46.9531 199.055 46.5156C199.039 46.4688 198.984 46.3516 198.891 46.1641C198.797 45.9609 198.695 45.75 198.586 45.5312C198.492 45.3125 198.398 45.1094 198.305 44.9219C198.227 44.7344 198.18 44.6172 198.164 44.5703C198.117 44.4922 198.055 44.3672 197.977 44.1953C197.914 44.0234 197.844 43.8438 197.766 43.6562C197.688 43.4531 197.617 43.2734 197.555 43.1172C197.492 42.9453 197.445 42.8359 197.414 42.7891C197.398 42.7422 197.367 42.6406 197.32 42.4844C197.273 42.3125 197.219 42.1328 197.156 41.9453C197.094 41.7578 197.031 41.5859 196.969 41.4297C196.906 41.2578 196.859 41.1562 196.828 41.125C196.828 41.1094 196.797 41.0547 196.734 40.9609C196.688 40.8516 196.633 40.7344 196.57 40.6094C196.508 40.4844 196.445 40.3672 196.383 40.2578C196.32 40.1328 196.281 40.0469 196.266 40C196.266 39.9844 196.258 39.9297 196.242 39.8359C196.227 39.7266 196.211 39.6172 196.195 39.5078C196.195 39.3828 196.188 39.2734 196.172 39.1797C196.156 39.0703 196.148 39.0078 196.148 38.9922C196.148 38.9609 196.117 38.9297 196.055 38.8984C196.008 38.8516 195.984 38.8125 195.984 38.7812C195.781 38.3906 195.578 37.9297 195.375 37.3984C195.188 36.8516 195.016 36.3516 194.859 35.8984C194.859 35.8828 194.852 35.8359 194.836 35.7578C194.836 35.6797 194.828 35.5938 194.812 35.5C194.812 35.4062 194.797 35.3203 194.766 35.2422C194.75 35.1484 194.734 35.0859 194.719 35.0547C194.688 34.9922 194.609 34.8359 194.484 34.5859C194.359 34.3359 194.227 34.0703 194.086 33.7891C193.945 33.4922 193.812 33.2266 193.688 32.9922C193.578 32.7422 193.508 32.5781 193.477 32.5C193.336 32.2656 193.203 31.9688 193.078 31.6094C192.969 31.2344 192.836 30.8672 192.68 30.5078C192.523 30.1328 192.336 29.7969 192.117 29.5C191.898 29.1875 191.633 28.9844 191.32 28.8906C191.242 28.875 191.117 28.8594 190.945 28.8438C190.773 28.8125 190.594 28.7812 190.406 28.75C190.219 28.7188 190.031 28.6953 189.844 28.6797C189.672 28.6484 189.555 28.625 189.492 28.6094Z" fill="#363535"/>
</svg>
